<?xml version="1.0" encoding="UTF-8" standalone="no"?>
<!DOCTYPE svg PUBLIC "-//W3C//DTD SVG 1.1//EN" "http://www.w3.org/Graphics/SVG/1.1/DTD/svg11.dtd">
<svg width="100%" height="100%" viewBox="0 0 2601 491" version="1.1" xmlns="http://www.w3.org/2000/svg" xmlns:xlink="http://www.w3.org/1999/xlink" xml:space="preserve" xmlns:serif="http://www.serif.com/" style="fill-rule:evenodd;clip-rule:evenodd;stroke-linejoin:round;stroke-miterlimit:2;">
    <g transform="matrix(1,0,0,1,-488.609,-1072.83)">
        <g transform="matrix(458.333,0,0,458.333,505,1465)">
            <path d="M0.352,-0L0.177,-0L0.177,-0.208L0,-0.642L0.179,-0.642L0.263,-0.371L0.341,-0.642L0.519,-0.642L0.352,-0.21L0.352,-0Z" style="fill:rgb(142,152,100);fill-rule:nonzero;"/>
        </g>
        <g transform="matrix(458.333,0,0,458.333,742.875,1465)">
            <path d="M0.177,-0.499L0.304,-0.499C0.355,-0.499 0.391,-0.488 0.413,-0.467C0.435,-0.446 0.446,-0.415 0.446,-0.375L0.446,-0.124C0.446,-0.084 0.435,-0.053 0.413,-0.032C0.391,-0.011 0.355,-0 0.304,-0L0.177,-0C0.126,-0 0.09,-0.011 0.068,-0.032C0.046,-0.053 0.035,-0.084 0.035,-0.124L0.035,-0.375C0.035,-0.415 0.046,-0.446 0.068,-0.467C0.09,-0.488 0.126,-0.499 0.177,-0.499ZM0.279,-0.14L0.279,-0.359C0.279,-0.374 0.271,-0.381 0.254,-0.381L0.227,-0.381C0.21,-0.381 0.202,-0.374 0.202,-0.359L0.202,-0.14C0.202,-0.125 0.21,-0.118 0.227,-0.118L0.254,-0.118C0.271,-0.118 0.279,-0.125 0.279,-0.14Z" style="fill:rgb(142,152,100);fill-rule:nonzero;"/>
        </g>
        <g transform="matrix(458.333,0,0,458.333,963.333,1465)">
            <path d="M0.274,-0.499L0.444,-0.499L0.444,-0L0.277,-0L0.277,-0.064C0.268,-0.021 0.237,-0 0.186,-0L0.168,-0C0.079,-0 0.035,-0.041 0.035,-0.124L0.035,-0.499L0.205,-0.499L0.205,-0.147C0.205,-0.132 0.213,-0.125 0.23,-0.125L0.247,-0.125C0.265,-0.125 0.274,-0.135 0.274,-0.155L0.274,-0.499Z" style="fill:rgb(142,152,100);fill-rule:nonzero;"/>
        </g>
        <g transform="matrix(458.333,0,0,458.333,1185.17,1465)">
            <path d="M0.298,-0.499L0.316,-0.499C0.405,-0.499 0.449,-0.458 0.449,-0.375L0.449,-0L0.279,-0L0.279,-0.352C0.279,-0.367 0.271,-0.374 0.254,-0.374L0.237,-0.374C0.219,-0.374 0.21,-0.364 0.21,-0.344L0.21,-0L0.04,-0L0.04,-0.499L0.207,-0.499L0.207,-0.435C0.216,-0.478 0.247,-0.499 0.298,-0.499Z" style="fill:rgb(142,152,100);fill-rule:nonzero;"/>
        </g>
        <g transform="matrix(458.333,0,0,458.333,1407,1465)">
            <path d="M0.272,-0.499L0.439,-0.499L0.439,0.005C0.439,0.088 0.39,0.129 0.292,0.129L0.053,0.129L0.053,0.009L0.244,0.009C0.261,0.009 0.269,0.002 0.269,-0.013L0.269,-0.084C0.256,-0.048 0.227,-0.03 0.181,-0.03L0.163,-0.03C0.074,-0.03 0.03,-0.071 0.03,-0.154L0.03,-0.375C0.03,-0.458 0.074,-0.499 0.163,-0.499L0.181,-0.499C0.232,-0.499 0.263,-0.478 0.272,-0.435L0.272,-0.499ZM0.225,-0.155L0.242,-0.155C0.26,-0.155 0.269,-0.165 0.269,-0.185L0.269,-0.344C0.269,-0.364 0.26,-0.374 0.242,-0.374L0.225,-0.374C0.208,-0.374 0.2,-0.367 0.2,-0.352L0.2,-0.177C0.2,-0.162 0.208,-0.155 0.225,-0.155Z" style="fill:rgb(142,152,100);fill-rule:nonzero;"/>
        </g>
        <g transform="matrix(458.333,0,0,458.333,1626.54,1465)">
            <path d="M0.177,-0.499L0.299,-0.499C0.397,-0.499 0.446,-0.458 0.446,-0.375L0.446,-0.205L0.191,-0.205L0.191,-0.139C0.191,-0.124 0.199,-0.117 0.216,-0.117L0.26,-0.117C0.277,-0.117 0.285,-0.125 0.285,-0.141L0.285,-0.169L0.446,-0.169L0.446,-0.124C0.446,-0.041 0.397,-0 0.299,-0L0.177,-0C0.079,-0 0.03,-0.041 0.03,-0.124L0.03,-0.375C0.03,-0.458 0.079,-0.499 0.177,-0.499ZM0.191,-0.297L0.285,-0.297L0.285,-0.36C0.285,-0.375 0.277,-0.382 0.26,-0.382L0.216,-0.382C0.199,-0.382 0.191,-0.375 0.191,-0.36L0.191,-0.297Z" style="fill:rgb(142,152,100);fill-rule:nonzero;"/>
        </g>
        <g transform="matrix(458.333,0,0,458.333,1842.42,1465)">
            <path d="M0.315,-0.504L0.33,-0.504L0.33,-0.356L0.273,-0.356C0.231,-0.356 0.21,-0.333 0.21,-0.288L0.21,-0L0.04,-0L0.04,-0.499L0.207,-0.499L0.207,-0.422C0.212,-0.447 0.224,-0.467 0.243,-0.482C0.262,-0.497 0.286,-0.504 0.315,-0.504Z" style="fill:rgb(142,152,100);fill-rule:nonzero;"/>
        </g>
        <g transform="matrix(458.333,0,0,458.333,2087.62,1465)">
            <rect x="0.05" y="-0.833" width="0.155" height="1.026" style="fill:rgb(142,152,100);fill-rule:nonzero;"/>
        </g>
        <g transform="matrix(458.333,0,0,458.333,2301.21,1465)">
            <path d="M0.286,-0.147L0.286,-0.238C0.286,-0.253 0.278,-0.26 0.261,-0.26L0.165,-0.26C0.116,-0.26 0.081,-0.271 0.061,-0.293C0.04,-0.314 0.03,-0.345 0.03,-0.386L0.03,-0.518C0.03,-0.601 0.079,-0.642 0.176,-0.642L0.313,-0.642C0.41,-0.642 0.459,-0.601 0.459,-0.518L0.459,-0.441L0.284,-0.441L0.284,-0.495C0.284,-0.51 0.276,-0.517 0.259,-0.517L0.23,-0.517C0.213,-0.517 0.205,-0.51 0.205,-0.495L0.205,-0.4C0.205,-0.385 0.213,-0.378 0.23,-0.378L0.324,-0.378C0.373,-0.378 0.408,-0.368 0.43,-0.347C0.451,-0.326 0.461,-0.296 0.461,-0.256L0.461,-0.124C0.461,-0.041 0.412,-0 0.315,-0L0.179,-0C0.081,-0 0.032,-0.041 0.032,-0.124L0.032,-0.201L0.207,-0.201L0.207,-0.147C0.207,-0.132 0.215,-0.125 0.232,-0.125L0.261,-0.125C0.278,-0.125 0.286,-0.132 0.286,-0.147Z" style="fill:rgb(142,152,100);fill-rule:nonzero;"/>
        </g>
        <g transform="matrix(458.333,0,0,458.333,2526.25,1465)">
            <path d="M0.21,-0L0.04,-0L0.04,-0.669L0.21,-0.669L0.21,-0.272L0.304,-0.499L0.48,-0.499L0.373,-0.253L0.48,-0L0.303,-0L0.21,-0.233L0.21,-0Z" style="fill:rgb(142,152,100);fill-rule:nonzero;"/>
        </g>
        <g transform="matrix(458.333,0,0,458.333,2743.96,1465)">
            <path d="M0.037,-0.549L0.037,-0.669L0.213,-0.669L0.213,-0.549L0.037,-0.549ZM0.21,-0L0.04,-0L0.04,-0.499L0.21,-0.499L0.21,-0Z" style="fill:rgb(142,152,100);fill-rule:nonzero;"/>
        </g>
        <g transform="matrix(458.333,0,0,458.333,2858.54,1465)">
            <path d="M0.298,-0.499L0.316,-0.499C0.405,-0.499 0.449,-0.458 0.449,-0.375L0.449,-0L0.279,-0L0.279,-0.352C0.279,-0.367 0.271,-0.374 0.254,-0.374L0.237,-0.374C0.219,-0.374 0.21,-0.364 0.21,-0.344L0.21,-0L0.04,-0L0.04,-0.499L0.207,-0.499L0.207,-0.435C0.216,-0.478 0.247,-0.499 0.298,-0.499Z" style="fill:rgb(142,152,100);fill-rule:nonzero;"/>
        </g>
    </g>
</svg>
