<?xml version="1.0" encoding="UTF-8" standalone="no"?>
<!DOCTYPE svg PUBLIC "-//W3C//DTD SVG 1.1//EN" "http://www.w3.org/Graphics/SVG/1.1/DTD/svg11.dtd">
<svg width="100%" height="100%" viewBox="0 0 2918 491" version="1.1" xmlns="http://www.w3.org/2000/svg" xmlns:xlink="http://www.w3.org/1999/xlink" xml:space="preserve" xmlns:serif="http://www.serif.com/" style="fill-rule:evenodd;clip-rule:evenodd;stroke-linejoin:round;stroke-miterlimit:2;">
    <g transform="matrix(1,0,0,1,-508.063,-1076)">
        <g transform="matrix(400,0,0,400,505,1465)">
            <path d="M0.19,-0.808L0.305,-0.423L0.309,-0.423L0.424,-0.808L0.589,-0.808L0.38,-0.291L0.38,-0L0.225,-0L0.225,-0.293L0.023,-0.808L0.19,-0.808Z" style="fill:rgb(142,152,100);fill-rule:nonzero;"/>
        </g>
        <g transform="matrix(400,0,0,400,749.4,1465)">
            <path d="M0.413,-0.641C0.442,-0.641 0.466,-0.637 0.487,-0.63C0.508,-0.623 0.525,-0.611 0.539,-0.595C0.552,-0.578 0.562,-0.557 0.569,-0.53C0.576,-0.503 0.579,-0.471 0.579,-0.432L0.579,-0.21C0.579,-0.171 0.576,-0.138 0.57,-0.111C0.563,-0.084 0.553,-0.063 0.54,-0.047C0.526,-0.03 0.508,-0.018 0.488,-0.011C0.467,-0.004 0.442,-0 0.413,-0L0.199,-0C0.169,-0 0.143,-0.004 0.122,-0.011C0.101,-0.018 0.083,-0.03 0.07,-0.047C0.057,-0.063 0.047,-0.084 0.041,-0.111C0.035,-0.138 0.032,-0.171 0.032,-0.21L0.032,-0.432C0.032,-0.471 0.035,-0.503 0.041,-0.53C0.047,-0.557 0.057,-0.578 0.07,-0.595C0.083,-0.611 0.101,-0.623 0.122,-0.63C0.143,-0.637 0.169,-0.641 0.199,-0.641L0.413,-0.641ZM0.189,-0.212C0.189,-0.172 0.194,-0.143 0.203,-0.126C0.212,-0.108 0.227,-0.099 0.25,-0.099L0.36,-0.099C0.383,-0.099 0.399,-0.108 0.408,-0.126C0.417,-0.143 0.421,-0.171 0.421,-0.21L0.421,-0.432C0.421,-0.47 0.417,-0.498 0.408,-0.515C0.399,-0.532 0.383,-0.54 0.36,-0.54L0.25,-0.54C0.227,-0.54 0.212,-0.532 0.203,-0.515C0.194,-0.498 0.189,-0.47 0.189,-0.432L0.189,-0.212Z" style="fill:rgb(142,152,100);fill-rule:nonzero;"/>
        </g>
        <g transform="matrix(400,0,0,400,993.8,1465)">
            <path d="M0.197,-0.641L0.197,-0.208C0.197,-0.185 0.198,-0.167 0.2,-0.153C0.202,-0.139 0.205,-0.128 0.21,-0.12C0.214,-0.112 0.22,-0.107 0.228,-0.103C0.236,-0.101 0.246,-0.099 0.258,-0.099L0.413,-0.099L0.413,-0.641L0.568,-0.641L0.568,-0L0.208,-0C0.178,-0 0.153,-0.003 0.132,-0.01C0.111,-0.016 0.094,-0.027 0.081,-0.042C0.068,-0.057 0.058,-0.077 0.052,-0.102C0.046,-0.127 0.043,-0.159 0.043,-0.197L0.043,-0.641L0.197,-0.641Z" style="fill:rgb(142,152,100);fill-rule:nonzero;"/>
        </g>
        <g transform="matrix(400,0,0,400,1238.2,1465)">
            <path d="M0.401,-0.641C0.431,-0.641 0.457,-0.638 0.477,-0.632C0.499,-0.626 0.516,-0.616 0.529,-0.601C0.542,-0.586 0.551,-0.565 0.557,-0.54C0.563,-0.514 0.566,-0.482 0.566,-0.443L0.566,-0L0.413,-0L0.413,-0.432C0.413,-0.453 0.412,-0.471 0.41,-0.485C0.408,-0.499 0.405,-0.51 0.4,-0.518C0.395,-0.526 0.388,-0.532 0.381,-0.535C0.373,-0.538 0.364,-0.54 0.353,-0.54L0.199,-0.54L0.199,-0L0.044,-0L0.044,-0.641L0.401,-0.641Z" style="fill:rgb(142,152,100);fill-rule:nonzero;"/>
        </g>
        <g transform="matrix(400,0,0,400,1482.6,1465)">
            <path d="M0.565,-0.641L0.565,0.033C0.565,0.073 0.562,0.106 0.556,0.133C0.55,0.16 0.54,0.181 0.527,0.197C0.514,0.214 0.497,0.225 0.476,0.232C0.455,0.239 0.43,0.243 0.4,0.243L0.149,0.243L0.149,0.143L0.286,0.143C0.312,0.143 0.333,0.142 0.349,0.14C0.366,0.138 0.379,0.133 0.388,0.126C0.397,0.119 0.403,0.109 0.406,0.096C0.409,0.083 0.411,0.066 0.411,0.043L0.411,-0L0.212,-0C0.182,-0 0.156,-0.004 0.135,-0.011C0.114,-0.018 0.096,-0.03 0.083,-0.047C0.07,-0.063 0.06,-0.084 0.054,-0.111C0.048,-0.138 0.045,-0.171 0.045,-0.21L0.045,-0.431C0.045,-0.47 0.048,-0.503 0.055,-0.531C0.062,-0.558 0.072,-0.579 0.085,-0.596C0.098,-0.612 0.116,-0.624 0.137,-0.63C0.158,-0.637 0.183,-0.641 0.212,-0.641L0.565,-0.641ZM0.199,-0.201C0.199,-0.162 0.203,-0.136 0.212,-0.121C0.22,-0.106 0.236,-0.099 0.261,-0.099L0.411,-0.099L0.411,-0.54L0.304,-0.54C0.283,-0.54 0.265,-0.539 0.252,-0.537C0.239,-0.534 0.228,-0.53 0.22,-0.523C0.212,-0.516 0.206,-0.506 0.203,-0.493C0.201,-0.48 0.199,-0.464 0.199,-0.443L0.199,-0.201Z" style="fill:rgb(142,152,100);fill-rule:nonzero;"/>
        </g>
        <g transform="matrix(400,0,0,400,1727,1465)">
            <path d="M0.431,-0.641C0.473,-0.641 0.506,-0.626 0.531,-0.596C0.556,-0.565 0.568,-0.517 0.568,-0.451C0.568,-0.385 0.557,-0.338 0.534,-0.309C0.51,-0.28 0.476,-0.266 0.431,-0.266L0.2,-0.266L0.2,-0.209C0.2,-0.185 0.201,-0.166 0.203,-0.151C0.206,-0.136 0.21,-0.125 0.216,-0.117C0.222,-0.11 0.23,-0.105 0.241,-0.102C0.251,-0.1 0.264,-0.099 0.279,-0.099L0.513,-0.099L0.513,-0L0.209,-0C0.18,-0 0.155,-0.004 0.134,-0.011C0.113,-0.018 0.096,-0.03 0.083,-0.047C0.07,-0.063 0.06,-0.084 0.054,-0.111C0.047,-0.138 0.044,-0.171 0.044,-0.21L0.044,-0.432C0.044,-0.471 0.047,-0.503 0.054,-0.53C0.06,-0.557 0.07,-0.578 0.083,-0.595C0.096,-0.611 0.113,-0.623 0.134,-0.63C0.155,-0.637 0.18,-0.641 0.209,-0.641L0.431,-0.641ZM0.2,-0.358L0.368,-0.358C0.379,-0.358 0.388,-0.359 0.396,-0.361C0.403,-0.363 0.409,-0.367 0.414,-0.374C0.419,-0.381 0.422,-0.39 0.424,-0.403C0.426,-0.415 0.427,-0.431 0.427,-0.452C0.427,-0.472 0.426,-0.488 0.425,-0.5C0.423,-0.511 0.42,-0.52 0.416,-0.526C0.411,-0.532 0.405,-0.536 0.398,-0.538C0.39,-0.539 0.38,-0.54 0.368,-0.54L0.261,-0.54C0.249,-0.54 0.239,-0.538 0.231,-0.535C0.223,-0.532 0.217,-0.526 0.212,-0.518C0.207,-0.51 0.204,-0.499 0.203,-0.486C0.201,-0.472 0.2,-0.455 0.2,-0.434L0.2,-0.358Z" style="fill:rgb(142,152,100);fill-rule:nonzero;"/>
        </g>
        <g transform="matrix(400,0,0,400,1971.4,1465)">
            <path d="M0.547,-0.54L0.313,-0.54C0.294,-0.54 0.278,-0.539 0.266,-0.537C0.253,-0.534 0.244,-0.529 0.236,-0.521C0.23,-0.513 0.225,-0.501 0.223,-0.486C0.22,-0.47 0.219,-0.449 0.219,-0.422L0.219,-0L0.064,-0L0.064,-0.446C0.064,-0.515 0.082,-0.564 0.118,-0.595C0.155,-0.626 0.209,-0.641 0.281,-0.641L0.547,-0.641L0.547,-0.54Z" style="fill:rgb(142,152,100);fill-rule:nonzero;"/>
        </g>
        <g transform="matrix(400,0,0,400,2215.8,1465)">
            <rect x="0.251" y="-0.956" width="0.108" height="1.199" style="fill:rgb(142,152,100);fill-rule:nonzero;"/>
        </g>
        <g transform="matrix(400,0,0,400,2460.2,1465)">
            <path d="M0.527,-0.808L0.527,-0.707L0.264,-0.707C0.253,-0.707 0.243,-0.704 0.234,-0.698C0.225,-0.692 0.218,-0.684 0.212,-0.673C0.206,-0.662 0.202,-0.65 0.199,-0.636C0.196,-0.623 0.194,-0.608 0.194,-0.593C0.194,-0.558 0.2,-0.53 0.213,-0.509C0.226,-0.488 0.243,-0.477 0.264,-0.477L0.399,-0.477C0.426,-0.477 0.45,-0.471 0.471,-0.46C0.492,-0.449 0.509,-0.433 0.523,-0.413C0.537,-0.393 0.548,-0.369 0.555,-0.342C0.562,-0.314 0.565,-0.284 0.565,-0.251C0.565,-0.216 0.561,-0.183 0.554,-0.153C0.546,-0.122 0.535,-0.096 0.521,-0.073C0.507,-0.05 0.49,-0.033 0.471,-0.02C0.452,-0.007 0.43,-0 0.407,-0L0.073,-0L0.073,-0.099L0.342,-0.099C0.354,-0.099 0.365,-0.102 0.374,-0.11C0.383,-0.117 0.391,-0.126 0.398,-0.138C0.405,-0.15 0.41,-0.164 0.413,-0.181C0.416,-0.197 0.418,-0.214 0.418,-0.233C0.418,-0.255 0.416,-0.274 0.412,-0.289C0.409,-0.304 0.403,-0.317 0.394,-0.326C0.385,-0.335 0.373,-0.341 0.358,-0.345C0.343,-0.349 0.325,-0.351 0.302,-0.351L0.215,-0.351C0.188,-0.351 0.163,-0.357 0.142,-0.368C0.121,-0.379 0.103,-0.394 0.089,-0.413C0.074,-0.433 0.063,-0.457 0.056,-0.484C0.049,-0.511 0.045,-0.542 0.045,-0.575C0.045,-0.607 0.049,-0.637 0.056,-0.666C0.063,-0.694 0.074,-0.719 0.087,-0.74C0.1,-0.76 0.117,-0.777 0.136,-0.79C0.155,-0.802 0.176,-0.808 0.199,-0.808L0.527,-0.808Z" style="fill:rgb(142,152,100);fill-rule:nonzero;"/>
        </g>
        <g transform="matrix(400,0,0,400,2704.6,1465)">
            <path d="M0.189,-0.845L0.189,-0.419L0.199,-0.419L0.394,-0.641L0.556,-0.641L0.304,-0.347L0.58,-0L0.4,-0L0.197,-0.269L0.189,-0.269L0.189,-0L0.032,-0L0.032,-0.845L0.189,-0.845Z" style="fill:rgb(142,152,100);fill-rule:nonzero;"/>
        </g>
        <g transform="matrix(400,0,0,400,2949,1465)">
            <path d="M0.398,-0.845L0.398,-0.721L0.215,-0.721L0.215,-0.845L0.398,-0.845ZM0.384,-0.641L0.384,-0.099L0.558,-0.099L0.558,-0L0.052,-0L0.052,-0.099L0.229,-0.099L0.229,-0.54L0.052,-0.54L0.052,-0.641L0.384,-0.641Z" style="fill:rgb(142,152,100);fill-rule:nonzero;"/>
        </g>
        <g transform="matrix(400,0,0,400,3193.4,1465)">
            <path d="M0.401,-0.641C0.431,-0.641 0.457,-0.638 0.477,-0.632C0.499,-0.626 0.516,-0.616 0.529,-0.601C0.542,-0.586 0.551,-0.565 0.557,-0.54C0.563,-0.514 0.566,-0.482 0.566,-0.443L0.566,-0L0.413,-0L0.413,-0.432C0.413,-0.453 0.412,-0.471 0.41,-0.485C0.408,-0.499 0.405,-0.51 0.4,-0.518C0.395,-0.526 0.388,-0.532 0.381,-0.535C0.373,-0.538 0.364,-0.54 0.353,-0.54L0.199,-0.54L0.199,-0L0.044,-0L0.044,-0.641L0.401,-0.641Z" style="fill:rgb(142,152,100);fill-rule:nonzero;"/>
        </g>
    </g>
</svg>
