<?xml version="1.0" encoding="UTF-8" standalone="no"?>
<!DOCTYPE svg PUBLIC "-//W3C//DTD SVG 1.1//EN" "http://www.w3.org/Graphics/SVG/1.1/DTD/svg11.dtd">
<svg width="100%" height="100%" viewBox="0 0 330 39" version="1.1" xmlns="http://www.w3.org/2000/svg" xmlns:xlink="http://www.w3.org/1999/xlink" xml:space="preserve" xmlns:serif="http://www.serif.com/" style="fill-rule:evenodd;clip-rule:evenodd;stroke-linejoin:round;stroke-miterlimit:2;">
    <g transform="matrix(1,0,0,1,-125,-89)">
        <g>
            <g>
                <g>
                    <path d="M140.007,121.614L140.007,111.616L130.081,95.289L133.317,95.289C134.323,95.289 135.115,95.758 135.619,96.62L142.019,107.661L148.383,96.62C148.889,95.722 149.68,95.289 150.758,95.289L153.922,95.289L144.178,111.616L144.178,119.384C144.178,120.823 143.422,121.614 141.983,121.614L140.007,121.614Z" style="fill:rgb(27,24,28);fill-rule:nonzero;"/>
                    <path d="M157.122,108.452C157.122,100.936 162.695,94.75 170.679,94.75C178.699,94.75 184.31,100.937 184.31,108.452C184.31,116.005 178.699,122.154 170.679,122.154C162.695,122.154 157.122,116.004 157.122,108.452ZM170.679,118.593C176.109,118.593 180.175,113.989 180.175,108.451C180.175,103.02 176.109,98.309 170.679,98.309C165.284,98.309 161.257,102.984 161.257,108.451C161.257,113.955 165.284,118.593 170.679,118.593Z" style="fill:rgb(27,24,28);fill-rule:nonzero;"/>
                    <path d="M191.829,111.114L191.829,95.289L193.915,95.289C195.173,95.289 195.964,96.081 195.964,97.339L195.964,110.97C195.964,117.011 200.388,118.558 203.049,118.558C205.638,118.558 210.098,117.011 210.098,110.97L210.098,97.338C210.098,96.08 210.924,95.288 212.148,95.288L214.197,95.288L214.197,111.113C214.197,117.801 209.81,122.117 203.05,122.117C196.324,122.118 191.829,117.802 191.829,111.114Z" style="fill:rgb(27,24,28);fill-rule:nonzero;"/>
                    <path d="M224.434,95.289L224.525,95.289L243.242,112.298L243.242,97.411C243.242,96.116 244.069,95.289 245.364,95.289L247.377,95.289L247.377,121.614L247.406,121.614L228.57,104.52L228.57,119.493C228.57,120.788 227.742,121.614 226.482,121.614L224.434,121.614L224.434,95.289Z" style="fill:rgb(27,24,28);fill-rule:nonzero;"/>
                    <path d="M428.083,95.289L428.174,95.289L446.892,112.298L446.892,97.411C446.892,96.116 447.718,95.289 449.013,95.289L451.027,95.289L451.027,121.614L451.056,121.614L432.218,104.52L432.218,119.493C432.218,120.788 431.391,121.614 430.132,121.614L428.083,121.614L428.083,95.289Z" style="fill:rgb(27,24,28);fill-rule:nonzero;"/>
                    <path d="M281.847,109.854C281.595,116.687 276.704,122.154 268.685,122.154C260.953,122.154 255.126,116.005 255.126,108.488C255.126,100.971 261.204,94.786 268.685,94.786C273.144,94.786 277.029,96.944 279.509,100.216L277.747,101.224C276.704,101.8 275.913,101.62 274.941,100.792C273.251,99.246 271.093,98.348 268.684,98.348C263.362,98.348 259.227,103.022 259.227,108.489C259.227,113.884 263.109,118.486 268.576,118.594C273.467,118.665 277.387,115.645 277.712,111.294L269.944,111.294C268.647,111.294 267.893,110.609 267.893,109.278L267.893,107.625L281.774,107.625C281.847,108.38 281.847,109.315 281.847,109.854Z" style="fill:rgb(27,24,28);fill-rule:nonzero;"/>
                    <path d="M315.407,95.289L327.239,95.289C332.489,95.289 336.122,98.958 336.122,104.173C336.122,108.236 333.856,111.438 329.684,112.228L336.553,121.615L333.281,121.615C332.309,121.615 331.447,121.219 330.872,120.393L325.405,112.733L319.544,112.733L319.544,119.494C319.544,120.789 318.716,121.615 317.421,121.615L315.407,121.615L315.407,95.289ZM326.7,109.315C329.109,109.315 332.022,107.768 332.022,104.1C332.022,101.978 330.834,98.743 326.7,98.743L319.544,98.743L319.544,109.315L326.7,109.315Z" style="fill:rgb(27,24,28);fill-rule:nonzero;"/>
                    <path d="M345.286,108.883C345.286,107.588 346.365,106.545 347.661,106.545C348.991,106.545 350.069,107.588 350.069,108.883C350.069,110.178 348.991,111.221 347.661,111.221C346.365,111.221 345.286,110.178 345.286,108.883Z" style="fill:rgb(148,203,171);fill-rule:nonzero;"/>
                    <path d="M358.688,118.522L359.586,117.227C360.27,116.184 361.313,116.077 362.463,116.687C364.514,117.838 366.959,118.629 369.44,118.629C373.18,118.629 375.266,116.973 375.266,114.457C375.266,111.4 372.173,110.788 368.613,110.07C365.485,109.459 358.688,108.703 358.688,102.697C358.688,96.691 364.189,94.857 368.469,94.857C372.317,94.857 375.338,96.044 377.819,97.878L376.921,99.136C376.237,100.179 375.159,100.359 374.044,99.82C372.174,98.885 370.339,98.382 368.254,98.382C366.06,98.382 362.824,99.281 362.824,102.518C362.824,105.647 367.282,106.149 370.196,106.69C374.079,107.336 379.402,108.38 379.402,114.313C379.402,119.565 375.374,122.154 369.584,122.154C364.729,122.154 361.457,120.679 358.688,118.522Z" style="fill:rgb(27,24,28);fill-rule:nonzero;"/>
                    <path d="M388.442,95.289L390.528,95.289C391.788,95.289 392.579,96.081 392.579,97.339L392.579,107.877L401.929,96.404C402.468,95.649 403.331,95.289 404.302,95.289L407.9,95.289L396.679,108.992L408.726,121.614L404.806,121.614C403.908,121.614 403.152,121.291 402.54,120.643L392.579,110.249L392.579,119.564C392.579,120.822 391.788,121.613 390.528,121.613L388.442,121.613L388.442,95.289Z" style="fill:rgb(27,24,28);fill-rule:nonzero;"/>
                    <path d="M414.62,119.42L414.62,95.289L416.706,95.289C417.931,95.289 418.757,96.081 418.757,97.339L418.757,121.614L416.671,121.614C415.376,121.614 414.62,120.823 414.62,119.42Z" style="fill:rgb(27,24,28);fill-rule:nonzero;"/>
                </g>
                <g>
                    <path d="M305.845,98.949C307.138,98.949 307.859,98.228 307.859,96.97L307.859,95.288L289.36,95.288L289.36,98.949L305.845,98.949Z" style="fill:rgb(27,24,28);fill-rule:nonzero;"/>
                    <path d="M305.845,121.555C307.138,121.555 307.859,120.834 307.859,119.576L307.859,117.894L289.36,117.894L289.36,121.555L305.845,121.555Z" style="fill:rgb(27,24,28);fill-rule:nonzero;"/>
                    <path d="M302.788,110.645C304.081,110.645 304.802,109.926 304.802,108.63L304.802,106.904L289.36,106.904L289.36,110.644L302.788,110.644L302.788,110.645Z" style="fill:rgb(27,24,28);fill-rule:nonzero;"/>
                </g>
            </g>
        </g>
    </g>
</svg>
